<?xml version="1.0" ?><svg height="24" id="svg8" version="1.1" viewBox="0 0 24 24" width="24" xmlns="http://www.w3.org/2000/svg" xmlns:cc="http://creativecommons.org/ns#" xmlns:dc="http://purl.org/dc/elements/1.1/" xmlns:rdf="http://www.w3.org/1999/02/22-rdf-syntax-ns#" xmlns:svg="http://www.w3.org/2000/svg"><defs id="defs2"><rect height="7.0346723" id="rect2504" width="7.9207187" x="-1.1008456" y="289.81766"/></defs><g id="g6067" style="opacity:1" transform="translate(0,-0.066405)"><path d="m 12,8.181641 c -0.990047,-1e-6 -1.804687,0.812879 -1.804688,1.802734 1e-6,0.418208 0.15211,0.800436 0.394532,1.107422 -1.17592,0.518751 -2.023859,1.656805 -2.101563,3.011719 l -0.03125,0.529296 h 7.085938 l -0.03125,-0.529296 C 15.433919,12.747783 14.585594,11.612217 13.410156,11.09375 13.65314,10.786574 13.804688,10.403121 13.804688,9.984375 13.804688,8.99452 12.990047,8.18164 12,8.181641 Z m 0,1.001953 c 0.450187,0 0.802734,0.351947 0.802734,0.800781 0,0.448168 -0.351551,0.803636 -0.802259,0.804162 -0.450709,5.26e-4 -0.803256,-0.355328 -0.803256,-0.804162 0,-0.448834 0.352547,-0.800781 0.802734,-0.800781 z m 2.380859,4.449218 H 9.617188 c 0.297975,-1.054307 1.21917,-1.832949 2.376505,-1.838144 1.157335,-0.0052 2.086772,0.77642 2.387166,1.838144 z" id="path1998" style="color:#000000;font-style:normal;font-variant:normal;font-weight:normal;font-stretch:normal;font-size:medium;line-height:normal;font-family:sans-serif;font-variant-ligatures:normal;font-variant-position:normal;font-variant-caps:normal;font-variant-numeric:normal;font-variant-alternates:normal;font-variant-east-asian:normal;font-feature-settings:normal;font-variation-settings:normal;text-indent:0;text-align:start;text-decoration:none;text-decoration-line:none;text-decoration-style:solid;text-decoration-color:#000000;letter-spacing:normal;word-spacing:normal;text-transform:none;writing-mode:lr-tb;direction:ltr;text-orientation:mixed;dominant-baseline:auto;baseline-shift:baseline;text-anchor:start;white-space:normal;shape-padding:0;shape-margin:0;inline-size:0;clip-rule:nonzero;display:inline;overflow:visible;visibility:visible;isolation:auto;mix-blend-mode:normal;color-interpolation:sRGB;color-interpolation-filters:linearRGB;solid-color:#000000;solid-opacity:1;vector-effect:none;fill:#000000;fill-opacity:1;fill-rule:nonzero;stroke:none;stroke-width:1;stroke-linecap:butt;stroke-linejoin:miter;stroke-miterlimit:4;stroke-dasharray:none;stroke-dashoffset:0;stroke-opacity:1;paint-order:stroke fill markers;color-rendering:auto;image-rendering:auto;shape-rendering:auto;text-rendering:auto;enable-background:accumulate;stop-color:#000000"/><path d="m -28,-78.5 c -0.895568,0 -1.632814,0.737245 -1.632812,1.632812 0,0.7204 0.480049,1.329287 1.132812,1.542969 v 1.181641 c -1.320752,0.109655 -2.518739,0.647875 -3.458984,1.476562 l -1.753907,-1.753906 c 0.215065,-0.356278 0.345703,-0.76916 0.345703,-1.21289 0,-1.301727 -1.067413,-2.367188 -2.36914,-2.367188 -1.301727,0 -2.367188,1.065461 -2.367188,2.367188 0,1.301726 1.065461,2.36914 2.367188,2.36914 0.49754,0 0.959236,-0.158472 1.341797,-0.423828 l 1.740234,1.740234 c -0.787711,0.968064 -1.273508,2.185716 -1.332031,3.513672 h -1.404297 c -0.213682,-0.652762 -0.82257,-1.132812 -1.542969,-1.132812 -0.895567,-10e-7 -1.632812,0.737244 -1.632812,1.632812 0,0.895568 0.737245,1.632814 1.632812,1.632813 0.720117,0 1.329055,-0.480444 1.542969,-1.132813 h 1.441406 c 0.153969,1.253515 0.69579,2.384642 1.501953,3.277344 l -1.86914,1.869141 c -0.382572,-0.26538 -0.844233,-0.423829 -1.341797,-0.423829 -1.301727,0 -2.367188,1.067414 -2.367188,2.369141 0,1.301727 1.065461,2.367188 2.367188,2.367188 1.301727,0 2.369141,-1.065461 2.369141,-2.367188 0,-0.443731 -0.130639,-0.856612 -0.345704,-1.212891 l 1.914063,-1.914062 c 0.901016,0.715076 2.009499,1.174831 3.220703,1.275391 v 1.65039 c -0.652763,0.213683 -1.132812,0.82257 -1.132812,1.542969 -2e-6,0.895568 0.737244,1.632813 1.632812,1.632812 0.895568,10e-7 1.632813,-0.737244 1.632812,-1.632812 10e-7,-0.720399 -0.480049,-1.329286 -1.132812,-1.542969 v -1.65039 c 1.204769,-0.100026 2.306639,-0.557026 3.205078,-1.265625 l 1.904297,1.904296 c -0.215064,0.356279 -0.345703,0.76916 -0.345703,1.212891 0,1.301727 1.067414,2.367188 2.36914,2.367188 1.301727,0 2.367188,-1.065461 2.367188,-2.367188 0,-1.301727 -1.065461,-2.369141 -2.367188,-2.369141 -0.498071,0 -0.958999,0.157955 -1.341796,0.423829 l -1.855469,-1.855469 c 0.812824,-0.894719 1.358936,-2.031251 1.513672,-3.291016 h 1.441406 c 0.213914,0.652369 0.822852,1.132813 1.542969,1.132813 0.895567,10e-7 1.632812,-0.737245 1.632812,-1.632813 0,-0.895568 -0.737245,-1.632813 -1.632812,-1.632812 -0.720399,0 -1.329287,0.48005 -1.542969,1.132812 h -1.404297 c -0.05968,-1.354123 -0.561911,-2.595199 -1.376953,-3.572265 l 1.681641,-1.681641 c 0.382785,0.265847 0.843752,0.423828 1.341796,0.423828 1.301727,0 2.367188,-1.067414 2.367188,-2.36914 C -18,-76.934539 -19.065461,-78 -20.367188,-78 c -1.301726,0 -2.36914,1.065461 -2.36914,2.367188 0,0.44373 0.130639,0.856612 0.345703,1.21289 l -1.705078,1.705078 c -0.931826,-0.801425 -2.109293,-1.320217 -3.404297,-1.427734 v -1.181641 c 0.652763,-0.213682 1.132813,-0.822569 1.132812,-1.542969 C -26.367187,-77.762755 -27.104432,-78.5 -28,-78.5 Z m 0,1 c 0.355127,0 0.632814,0.277685 0.632812,0.632812 0,0.355128 -0.277685,0.63086 -0.632812,0.63086 -0.355127,0 -0.632813,-0.275732 -0.632812,-0.63086 C -28.632813,-77.222315 -28.355127,-77.5 -28,-77.5 Z m -7.736328,0.5 c 0.761287,0 1.369141,0.605901 1.36914,1.367188 0,0.761286 -0.607853,1.36914 -1.36914,1.36914 -0.761287,0 -1.367188,-0.607854 -1.367188,-1.36914 0,-0.761287 0.605901,-1.367188 1.367188,-1.367188 z m 15.36914,0 c 0.761287,0 1.367188,0.605901 1.367188,1.367188 0,0.761286 -0.605901,1.36914 -1.367188,1.36914 -0.761286,0 -1.36914,-0.607854 -1.36914,-1.36914 0,-0.761287 0.607854,-1.367188 1.36914,-1.367188 z M -28,-73.167969 c 1.239999,0 2.357935,0.465207 3.230469,1.208985 l 0.560547,0.560546 c 0.743777,0.872535 1.208984,1.99047 1.208984,3.230469 0,2.767346 -2.232654,5 -5,5 -2.767346,0 -5,-2.232654 -5,-5 0,-2.767345 2.232654,-5 5,-5 z m -8.933594,4.601563 c 0.355128,0 0.63086,0.277685 0.63086,0.632812 0,0.355127 -0.275732,0.632813 -0.63086,0.632813 -0.355127,10e-7 -0.632812,-0.277686 -0.632812,-0.632813 0,-0.355127 0.277685,-0.632813 0.632812,-0.632812 z m 17.867188,0 c 0.355127,-10e-7 0.632812,0.277685 0.632812,0.632812 0,0.355127 -0.277685,0.632814 -0.632812,0.632813 -0.355128,0 -0.63086,-0.277686 -0.63086,-0.632813 0,-0.355127 0.275732,-0.632812 0.63086,-0.632812 z m -16.591797,6.855468 c 0.761287,10e-7 1.369141,0.607854 1.369141,1.369141 -10e-7,0.761287 -0.607854,1.367188 -1.369141,1.367188 -0.761287,0 -1.367188,-0.605901 -1.367188,-1.367188 0,-0.761287 0.605901,-1.369141 1.367188,-1.369141 z m 15.291015,0 c 0.761287,0 1.367188,0.607854 1.367188,1.369141 0,0.761287 -0.605901,1.367188 -1.367188,1.367188 -0.761286,0 -1.36914,-0.605901 -1.36914,-1.367188 0,-0.761287 0.607854,-1.36914 1.36914,-1.369141 z M -28,-59.630859 c 0.355127,0 0.632812,0.275732 0.632812,0.630859 2e-6,0.355128 -0.277685,0.632813 -0.632812,0.632812 -0.355127,10e-7 -0.632813,-0.277684 -0.632812,-0.632812 -10e-7,-0.355127 0.277685,-0.630859 0.632812,-0.630859 z" id="path1343" style="color:#000000;font-style:normal;font-variant:normal;font-weight:normal;font-stretch:normal;font-size:medium;line-height:normal;font-family:sans-serif;font-variant-ligatures:normal;font-variant-position:normal;font-variant-caps:normal;font-variant-numeric:normal;font-variant-alternates:normal;font-variant-east-asian:normal;font-feature-settings:normal;font-variation-settings:normal;text-indent:0;text-align:start;text-decoration:none;text-decoration-line:none;text-decoration-style:solid;text-decoration-color:#000000;letter-spacing:normal;word-spacing:normal;text-transform:none;writing-mode:lr-tb;direction:ltr;text-orientation:mixed;dominant-baseline:auto;baseline-shift:baseline;text-anchor:start;white-space:normal;shape-padding:0;shape-margin:0;inline-size:0;clip-rule:nonzero;display:inline;overflow:visible;visibility:visible;opacity:1;isolation:auto;mix-blend-mode:normal;color-interpolation:sRGB;color-interpolation-filters:linearRGB;solid-color:#000000;solid-opacity:1;vector-effect:none;fill:#000000;fill-opacity:1;fill-rule:nonzero;stroke:none;stroke-width:1;stroke-linecap:butt;stroke-linejoin:miter;stroke-miterlimit:4;stroke-dasharray:none;stroke-dashoffset:0;stroke-opacity:1;paint-order:stroke fill markers;color-rendering:auto;image-rendering:auto;shape-rendering:auto;text-rendering:auto;enable-background:accumulate;stop-color:#000000;stop-opacity:1" transform="translate(40,79.999999)"/><g id="g5969"/><g id="g5975" transform="matrix(-1,0,0,1,23.896875,0)"/><g id="g5981" transform="rotate(180,11.948438,12.012501)"/><g id="g5987" transform="matrix(1,0,0,-1,0.07812545,24.025002)"/><g id="g6021"><g id="g6007"/><g id="g6013" transform="matrix(1,0,0,-1,0,24.132292)"/></g><g id="g6035" transform="rotate(90,12,12.066146)"><g id="g6027"/><g id="g6033" transform="matrix(1,0,0,-1,0,24.132292)"/></g></g></svg>